<?xml version="1.0" encoding="utf-8"?>
<!-- Generator: Adobe Illustrator 23.0.3, SVG Export Plug-In . SVG Version: 6.00 Build 0)  -->
<svg version="1.1" id="Calque_1" xmlns="http://www.w3.org/2000/svg" xmlns:xlink="http://www.w3.org/1999/xlink" x="0px" y="0px"
	 viewBox="0 0 283.18 167.84" style="enable-background:new 0 0 283.18 167.84;" xml:space="preserve">
<style type="text/css">
	.st0{fill:#7EB200;}
	.st1{fill:#005FA9;}
</style>
<g>
	<path class="st0" d="M169.93,71.4c12.82-2.07,24.65-6.34,34.19-15.61c2.29-2.23,4.53-4.51,5.53-7.66c1.12-3.53,0-6.02-3.31-7.26
		c-0.68-0.17-1.09-0.18-2.01,0.02c-2.47,0.82-3.39,3.04-4.38,5.08c-2.59,5.32-6.07,9.88-10.64,13.67
		c-6.06,5.03-13.14,7.86-20.65,9.78c-2.98,0.76-5.97,1.44-8.96,2.16C163.2,72.4,166.57,71.94,169.93,71.4z"/>
	<path class="st0" d="M221.94,69.41c-11.32,0-20.5,9.54-20.5,21.32c0,1.34,0.13,2.65,0.36,3.92c-0.75,1.66-1.8,3.2-2.96,4.76
		c-3.8,5.09-10.02,5.43-12.22,5.38c-0.17-0.02-0.34-0.04-0.5-0.04c-3.86,0-6.58-2.04-7.43-5.96l-0.14-1.19
		c1.4,0.28,7.98,1.67,12.38,1.62c5.91-0.07,8.14-4.19,8.15-6.69c0.02-5.25-3.77-12.52-13.93-12.52c-6.41,0-11.02,3.34-13.1,7.9
		c-2.32-1-3.28-1.7-5.18-3.9c-0.28-0.32-0.69-0.5-1.12-0.47l-6.34,0.39c-0.41,0.03-0.73,0.38-0.71,0.79
		c0.22,4.47,0.16,13.4-0.57,14.09c-1.18-0.25-3.75-4.59-7.83-13.38c-1.38-2.97-3.85-2.97-4.58-2.91c-3.5,0.33-4.64,1.93-6,7.41
		c-0.42,1.69-0.9,3.62-1.43,5.31c-0.4,0.9-0.86,1.79-1.35,2.69c-3.06,5.56-9.18,6.75-11.37,7.01c-0.17,0-0.34,0.01-0.5,0.03
		c-3.82,0.53-6.8-1.12-8.18-4.88l-0.3-1.15c1.43,0.08,8.13,0.55,12.48-0.1c5.85-0.88,7.49-5.27,7.15-7.74
		c-0.7-5.2-5.46-11.88-15.52-10.49c-6.35,0.88-10.78,5.29-12.3,10.92c-1.61-0.22-2.17-0.24-5.32-1.86
		c4.61-11.94,4.83-22.92,4.49-29.63c-0.55-10.6-6.52-14.16-9.43-14.16c-8.14,0-10.39,11.36-10.85,15.96
		c-0.85,8.55,1.48,22.8,6.51,29.07c-7.75,12.91-15.45,12.87-21.28,12.62c-11.8-0.51-11.51-9.95-11.51-9.95l1.62,0.09
		c2.72,0.16,10.99,0.66,16.45-0.16c7.48-1.12,9.59-6.58,9.17-9.76c-0.55-4.12-2.87-8.09-6.21-10.62c-3.7-2.81-8.62-3.89-14.22-3.11
		c-8.04,1.12-14.11,6.51-16.24,14.42l-0.18,0.67l-1.5-0.2c-1.19-0.15-2.48-0.31-4.17-0.85c-1.8-0.58-3.98,0.36-4.71,2.11
		c-0.88,2.14,0.38,4.55,2.64,5.08c1.89,0.44,3.69,0.65,5.01,0.8c0.69,0.08,1.26,0.15,1.66,0.22l0.57,0.11l0.09,0.85
		c0.01,0.09,0.01,0.18,0.02,0.27c0.77,5.53,3.17,10.04,6.69,13.17c3.17,2.82,8.49,4.63,15.37,4.8
		c19.51-0.34,26.78-16.06,26.87-16.02c3.04,1.5,6.76,2.23,8,2.47c0.02,0.14,0.02,0.27,0.04,0.41l0.02,0.11
		c1.22,8.78,8.16,14.11,16.64,13.5c0.06,0,0.12,0,0.18,0c5.22-0.29,11.2-1.87,16.58-8.46c1.28-1.56,3.63-5.38,4.92-8.12
		c0.13-0.27,0.51-0.28,0.65-0.02c5.14,9.53,8.83,15.19,13.05,14.12c3.69-0.93,5.81-8.27,6.3-15.93c1.15,0.95,2.09,1.48,3.81,2.2
		c0,0.14-0.02-0.07-0.02,0.07v0.11c0,9.3,6.75,15.71,15.88,15.71c0.71,0,11.29,0.41,17.08-8.17c0.37-0.55,0.78-1.25,1.2-1.99
		c3.56,6.29,10.13,10.53,17.66,10.53c11.32,0,20.5-9.54,20.5-21.32C242.44,78.96,233.26,69.41,221.94,69.41z M185.15,86.94
		c2.82,0,4.69,0.86,5.62,3.06c0.46,1.09-0.33,2.33-1.52,2.4c-3.19,0.18-5.94-0.11-10.09-1.09
		C180.22,88.62,182.27,86.94,185.15,86.94z M60.94,85.58c1.05-4.38,3.88-7.1,7.97-7.67c4.37-0.61,7.23,0.5,9.01,3.48
		c0.53,0.88,0.58,1.93,0.16,2.88c-0.42,0.95-1.28,1.64-2.29,1.84c-2.62,0.52-5.04,0.77-7.82,0.77c-1.89,0-3.95-0.12-6.34-0.34
		l-0.9-0.09L60.94,85.58z M97.7,82.32c-3.53-6.02-3-25.3,0.35-25.3C101.16,57.02,100.72,71.36,97.7,82.32z M121.67,87.49
		c2.8-0.39,4.76,0.21,5.99,2.26c0.61,1.02-0.01,2.35-1.17,2.58c-3.14,0.62-5.9,0.7-10.14,0.3
		C117.01,89.82,118.81,87.88,121.67,87.49z M221.94,104.03c-6.86,0-12.43-5.95-12.43-13.3c0-7.34,5.56-13.3,12.43-13.3
		c6.86,0,12.43,5.95,12.43,13.3C234.36,98.07,228.8,104.03,221.94,104.03z"/>
</g>
<g>
	<g>
		<path class="st1" d="M237.26,111.19L237.26,111.19c-0.03,0-0.07,0-0.1,0c-0.36,0-0.67,0.14-0.85,0.37
			c-0.23,0.3-0.42,0.67-0.64,1.1c-0.55,1.07-1.23,2.28-3.09,3.69c-2.2,1.67-5.08,2.25-7.18,2.68c-0.12,0.03-0.24,0.05-0.36,0.07
			c0.25,0.06,0.57,0.09,0.95,0.09c2.13,0,5.59-0.94,6.94-1.55c0.9-0.41,2.38-1.28,3.58-2.35c0.93-0.83,2-1.95,1.82-3.14
			C238.26,111.65,237.77,111.21,237.26,111.19z"/>
		<path class="st1" d="M243.46,122.9c-1.73-0.13-1.35,2.17-4.24,2.16c-2.11-0.01-2.24-1.42-2.27-2.13c0.55-0.17,4.42-1.09,4.59-1.14
			c0.81-0.22,1.4-0.56,1.86-1.09c0.46-0.52,0.72-1.08,0.72-1.83c0-4.27-7.79-4.29-9.41,0.68l-2.18,5.14l-1.62-3.47
			c-0.17-0.41-0.3-0.69-0.38-0.84c-0.08-0.15-0.24-0.29-0.47-0.43c-0.23-0.14-0.54-0.2-0.94-0.2c-0.01,0-0.01,0-0.02,0
			c-0.01,0-0.01,0-0.02,0c-0.4,0-0.71,0.07-0.94,0.2c-0.23,0.14-0.38,0.28-0.47,0.43c-0.08,0.15-0.21,0.43-0.38,0.84l-1.82,3.47
			l-1.37-5.13c-0.32-1.19-0.83-3.09-3.25-3.62c-0.4-0.11-0.83-0.17-1.32-0.17c-4.91,0-6.16,4.07-4.37,4.2
			c1.73,0.13,1.35-2.17,4.24-2.16c2.05,0.01,2.23,1.34,2.27,2.07c-0.62,0.18-4.44,1.06-4.61,1.11c-0.81,0.22-1.4,0.56-1.86,1.09
			c-0.46,0.52-0.72,1.08-0.72,1.83c0,4.14,6.97,4.23,8.92,0.37c0.35,1.08,0.71,2.02,1.02,2.35c0.14,0.15,0.31,0.26,0.52,0.34
			c0.21,0.08,0.46,0.12,0.76,0.12c0.58,0,0.74-0.13,0.97-0.39c0.23-0.26,0.45-0.64,0.65-1.15l1.76-3.57l0.02-0.04l0.02,0.04
			l1.71,3.57c0.2,0.51,0.41,0.89,0.65,1.15c0.23,0.26,0.43,0.39,1.02,0.39c0.3,0,0.55-0.04,0.76-0.12c0.21-0.08,0.38-0.19,0.52-0.34
			c0.19-0.21,0.57-1.2,0.98-2.38c0.52,1.27,1.85,2.84,4.32,2.84C243.99,127.1,245.24,123.03,243.46,122.9z M236.95,120.9
			c0-0.94,0.12-1.62,0.36-2.03c0.21-0.37,0.53-0.67,0.97-0.91c0.44-0.24,1.04-0.38,1.56-0.38c0.49,0,0.96,0.13,1.26,0.42
			c0.3,0.29,0.45,0.64,0.45,1.05c0,0.4-0.1,1.03-1.2,1.38c-0.75,0.23-3,0.77-3.4,0.86V120.9z M221.76,121.82
			c0,0.94-0.34,1.7-0.58,2.11c-0.21,0.37-0.53,0.67-0.97,0.91c-0.44,0.24-0.92,0.35-1.45,0.35c-0.49,0-0.96-0.13-1.26-0.42
			c-0.3-0.29-0.45-0.64-0.45-1.05c0-0.4,0.1-1.03,1.2-1.38c0.75-0.23,3.11-0.83,3.51-0.92V121.82z"/>
	</g>
</g>
<g>
	<path class="st1" d="M207.73,116.03v1.12c0.14-0.14,0.28-0.25,0.42-0.33c0.14-0.08,0.32-0.11,0.53-0.11c0.24,0,0.46,0.06,0.64,0.17
		c0.18,0.12,0.33,0.28,0.43,0.5c0.1,0.22,0.15,0.48,0.15,0.78c0,0.22-0.03,0.43-0.08,0.61c-0.06,0.19-0.14,0.35-0.25,0.48
		c-0.11,0.14-0.24,0.24-0.39,0.32c-0.15,0.07-0.32,0.11-0.51,0.11c-0.11,0-0.22-0.01-0.32-0.04c-0.1-0.03-0.18-0.06-0.25-0.11
		c-0.07-0.04-0.13-0.09-0.18-0.14c-0.05-0.05-0.11-0.12-0.2-0.21v0.07c0,0.14-0.03,0.24-0.1,0.31c-0.07,0.07-0.15,0.11-0.25,0.11
		c-0.1,0-0.19-0.04-0.25-0.11c-0.06-0.07-0.09-0.18-0.09-0.31v-3.2c0-0.15,0.03-0.26,0.09-0.34c0.06-0.08,0.14-0.11,0.25-0.11
		c0.11,0,0.2,0.04,0.26,0.11C207.7,115.79,207.73,115.89,207.73,116.03z M207.77,118.21c0,0.29,0.07,0.52,0.2,0.67
		c0.13,0.16,0.31,0.24,0.53,0.24c0.18,0,0.34-0.08,0.48-0.24c0.13-0.16,0.2-0.39,0.2-0.69c0-0.19-0.03-0.36-0.08-0.5
		c-0.06-0.14-0.13-0.25-0.24-0.32c-0.1-0.08-0.22-0.11-0.36-0.11c-0.14,0-0.26,0.04-0.37,0.11c-0.11,0.08-0.2,0.19-0.26,0.33
		C207.8,117.84,207.77,118.01,207.77,118.21z"/>
	<path class="st1" d="M211.1,119.77l0.07-0.16l-0.9-2.27c-0.06-0.13-0.08-0.23-0.08-0.28c0-0.06,0.02-0.12,0.05-0.17
		c0.03-0.05,0.08-0.1,0.13-0.13c0.06-0.03,0.12-0.05,0.18-0.05c0.11,0,0.19,0.03,0.24,0.1c0.05,0.07,0.1,0.16,0.14,0.29l0.62,1.81
		l0.59-1.68c0.05-0.14,0.09-0.24,0.13-0.32c0.04-0.08,0.08-0.13,0.12-0.16s0.1-0.04,0.18-0.04c0.06,0,0.11,0.01,0.16,0.04
		c0.05,0.03,0.09,0.07,0.12,0.12s0.04,0.1,0.04,0.16c-0.01,0.03-0.02,0.08-0.03,0.15c-0.02,0.06-0.04,0.13-0.06,0.19l-0.96,2.5
		c-0.08,0.22-0.16,0.39-0.24,0.52c-0.08,0.13-0.18,0.22-0.31,0.29c-0.13,0.07-0.31,0.1-0.53,0.1c-0.21,0-0.38-0.02-0.48-0.07
		c-0.11-0.05-0.16-0.13-0.16-0.26c0-0.08,0.03-0.15,0.08-0.19c0.05-0.05,0.13-0.07,0.23-0.07c0.04,0,0.08,0.01,0.12,0.02
		c0.05,0.01,0.09,0.02,0.12,0.02c0.08,0,0.15-0.01,0.2-0.04c0.05-0.03,0.09-0.07,0.13-0.13C211,119.98,211.05,119.89,211.1,119.77z"
		/>
</g>
</svg>
